<?xml version="1.0" encoding="UTF-8"?>
<svg width="400" height="300" viewBox="0 0 400 300" fill="none" xmlns="http://www.w3.org/2000/svg">
  <rect width="400" height="300" fill="#F3F4F6"/>
  <path d="M200 120C175.147 120 155 140.147 155 165C155 189.853 175.147 210 200 210C224.853 210 245 189.853 245 165C245 140.147 224.853 120 200 120ZM200 190C186.193 190 175 178.807 175 165C175 151.193 186.193 140 200 140C213.807 140 225 151.193 225 165C225 178.807 213.807 190 200 190Z" fill="#D1D5DB"/>
  <rect x="185" y="80" width="30" height="30" rx="5" fill="#D1D5DB"/>
  <path d="M160 230H240" stroke="#D1D5DB" stroke-width="5" stroke-linecap="round"/>
  <text x="200" y="260" font-family="Arial" font-size="14" text-anchor="middle" fill="#6B7280">No Image Available</text>
</svg>